<svg width="24" height="24" xmlns="http://www.w3.org/2000/svg">

 <g>
  <title>Layer 1</title>
  <path id="svg_1" fill="none" d="m0,0l24,0l0,24l-24,0l0,-24z"/>
  <path fill="#a79277" id="svg_2" d="m7,18c-1.1,0 -1.99,0.9 -1.99,2s0.89,2 1.99,2s2,-0.9 2,-2s-0.9,-2 -2,-2zm-6,-16l0,2l2,0l3.6,7.59l-1.35,2.45c-0.16,0.28 -0.25,0.61 -0.25,0.96c0,1.1 0.9,2 2,2l12,0l0,-2l-11.58,0c-0.14,0 -0.25,-0.11 -0.25,-0.25l0.03,-0.12l0.9,-1.63l7.45,0c0.75,0 1.41,-0.41 1.75,-1.03l3.58,-6.49c0.08,-0.14 0.12,-0.31 0.12,-0.48c0,-0.55 -0.45,-1 -1,-1l-14.79,0l-0.94,-2l-3.27,0zm16,16c-1.1,0 -1.99,0.9 -1.99,2s0.89,2 1.99,2s2,-0.9 2,-2s-0.9,-2 -2,-2z"/>
 </g>
</svg>