<svg width="24" height="24" xmlns="http://www.w3.org/2000/svg">

 <g>
  <title>Layer 1</title>
  <path fill="#a79277" id="svg_1" d="m8,15l0,-1.5c0,-0.27614 0.22386,-0.5 0.5,-0.5c0.27614,0 0.5,0.22386 0.5,0.5l0,1.5l1.5,0c0.27614,0 0.5,0.22386 0.5,0.5c0,0.27614 -0.22386,0.5 -0.5,0.5l-1.5,0l0,1.5c0,0.27614 -0.22386,0.5 -0.5,0.5c-0.27614,0 -0.5,-0.22386 -0.5,-0.5l0,-1.5l-1.5,0c-0.27614,0 -0.5,-0.22386 -0.5,-0.5c0,-0.27614 0.22386,-0.5 0.5,-0.5l1.5,0zm-4,-10.5c0,-1.38071 1.11929,-2.5 2.5,-2.5l11,0c1.38071,0 2.5,1.11929 2.5,2.5l0,15c0,1.38071 -1.11929,2.5 -2.5,2.5l-11,0c-1.38071,0 -2.5,-1.11929 -2.5,-2.5l0,-15zm1,0l0,15c0,0.82843 0.67157,1.5 1.5,1.5l11,0c0.82843,0 1.5,-0.67157 1.5,-1.5l0,-15c0,-0.82843 -0.67157,-1.5 -1.5,-1.5l-11,0c-0.82843,0 -1.5,0.67157 -1.5,1.5zm10.5,8.5l1,0c0.27614,0 0.5,0.22386 0.5,0.5l0,1c0,0.27614 -0.22386,0.5 -0.5,0.5l-1,0c-0.27614,0 -0.5,-0.22386 -0.5,-0.5l0,-1c0,-0.27614 0.22386,-0.5 0.5,-0.5zm-2,3l1,0c0.27614,0 0.5,0.22386 0.5,0.5l0,1c0,0.27614 -0.22386,0.5 -0.5,0.5l-1,0c-0.27614,0 -0.5,-0.22386 -0.5,-0.5l0,-1c0,-0.27614 0.22386,-0.5 0.5,-0.5zm-7,-12l11,0c0.27614,0 0.5,0.22386 0.5,0.5l0,6c0,0.27614 -0.22386,0.5 -0.5,0.5l-11,0c-0.27614,0 -0.5,-0.22386 -0.5,-0.5l0,-6c0,-0.27614 0.22386,-0.5 0.5,-0.5zm0.5,1l0,5l10,0l0,-5l-10,0z"/>
 </g>
</svg>